<svg xmlns="http://www.w3.org/2000/svg">
  <symbol id="fare-seat" viewBox="0 0 24 24">
    <path fill="currentColor" d="M6.5 3h11A2.5 2.5 0 0 1 20 5.5V8H4V5.5A2.5 2.5 0 0 1 6.5 3zm-2.5 7h16v6.5A2.5 2.5 0 0 1 17.5 19h-11A2.5 2.5 0 0 1 4 16.5V10z"/>
  </symbol>
  <symbol id="fare-baggage" viewBox="0 0 24 24">
    <path fill="currentColor" d="M6 20a2 2 0 002 2h8a2 2 0 002-2V8a2 2 0 00-2-2h-1a2 2 0 00-2-2H9a2 2 0 00-2 2H6a2 2 0 00-2 2v10a2 2 0 002 2zm8-14V4a2 2 0 00-2-2h-2a2 2 0 00-2 2v2h6z"/>
  </symbol>
  <symbol id="fare-rewards" viewBox="0 0 24 24">
    <path fill="currentColor" d="M4 5a2 2 0 0 1 2-2h12a2 2 0 0 1 2 2v14a2 2 0 0 1-2 2H6a2 2 0 0 1-2-2V5Zm2 0v14h12V5H6Zm2 3h8v2H8V8Zm0 4h5v2H8v-2Z"/>
  </symbol>
  <symbol id="fare-flex" viewBox="0 0 24 24">
    <path fill="currentColor" d="M11.99 2C6.47 2 2 6.48 2 12s4.47 10 9.99 10C17.52 22 22 17.52 22 12S17.52 2 11.99 2zM12 20c-4.42 0-8-3.58-8-8s3.58-8 8-8 8 3.58 8 8-3.58 8-8 8zm.5-13H11v6l5.25 3.15.75-1.23-4.5-2.67z"/>
  </symbol>
</svg>
