<svg width="92" height="52" viewBox="0 0 92 52" fill="none" xmlns="http://www.w3.org/2000/svg">
<path d="M82.7979 6.13574C66.3682 17.6857 56.9392 25.6089 51.583 32.4424C46.4266 39.0213 45.0244 44.6146 45.0244 51.918H38.2744C38.2744 43.3519 40.0405 36.2269 46.2695 28.2793C50.9814 22.2676 58.2246 15.8147 69.0107 7.7666C63.474 8.59152 57.1312 9.93854 50.6367 11.8848C43.7785 13.94 36.878 16.6259 30.6445 19.9844C32.8076 19.8829 35.0537 19.9252 37.2568 20.2051C40.8273 20.6587 44.5149 21.7657 47.5264 24.1191L43.3701 29.4375C41.6478 28.0915 39.2706 27.2653 36.4062 26.9014C33.5591 26.5396 30.4557 26.6638 27.5146 27.0234C24.5885 27.3812 21.9233 27.9592 19.9844 28.4512C19.0186 28.6962 18.2412 28.9181 17.7119 29.0762C17.6705 29.0885 17.6301 29.1007 17.5918 29.1123C14.7531 31.76 12.3769 34.6342 10.5781 37.7529C12.6599 36.8756 14.8853 36.2433 17.1055 35.8008C25.3553 34.1564 34.8474 34.8507 39.9912 36.584L38.9141 39.7822L37.8359 42.9805C33.9685 41.6773 25.6914 40.9715 18.4248 42.4199C14.8196 43.1386 11.7994 44.3255 9.75195 45.9424C7.8221 47.4666 6.75 49.3528 6.75 51.918H0L0.00390625 51.3721C0.17457 39.9547 5.69627 30.7637 13.5986 23.6143C23.1061 15.0128 36.2743 9.14241 48.6992 5.41895C61.1446 1.68939 73.2318 5.4728e-05 80.8564 0H91.5264L82.7979 6.13574Z" fill="#2D4F2F"/>
<path d="M21.2653 19.2814L23.0777 21.4507L25.5555 21.501L23.8455 23.2949L24.1082 26.1095L22.2958 23.9401L19.8179 23.8899L21.528 22.0959L21.2653 19.2814Z" fill="#FADA5A"/>
<path d="M73.2653 2.28138L75.0777 4.45072L77.5555 4.50101L75.8455 6.29493L76.1082 9.10948L74.2958 6.94014L71.8179 6.88985L73.528 5.09593L73.2653 2.28138Z" fill="#FADA5A"/>
<path d="M4.27223 39.509L6.84628 40.6773L9.10066 39.6477L8.33815 42.0059L9.79585 44.4278L7.22181 43.2595L4.96742 44.2891L5.72993 41.931L4.27223 39.509Z" fill="#FADA5A"/>
</svg>
