<svg width="120" height="120" viewBox="0 0 120 120" fill="none" xmlns="http://www.w3.org/2000/svg">
<circle cx="60" cy="60" r="57" fill="#FDFDFD" stroke="#2D4F2F" stroke-width="6"/>
<g transform="translate(60 60) scale(1.18) translate(-60 -60)">
<path d="M96.7979 40.1357C80.3682 51.6857 70.9392 59.6089 65.583 66.4424C60.4266 73.0213 59.0244 78.6146 59.0244 85.918H52.2744C52.2744 77.3519 54.0405 70.2269 60.2695 62.2793C64.9814 56.2676 72.2246 49.8147 83.0107 41.7666C77.474 42.5915 71.1312 43.9385 64.6367 45.8848C57.7785 47.94 50.878 50.6259 44.6445 53.9844C46.8076 53.8829 49.0537 53.9252 51.2568 54.2051C54.8273 54.6587 58.5149 55.7657 61.5264 58.1191L57.3701 63.4375C55.6478 62.0915 53.2706 61.2653 50.4062 60.9014C47.5591 60.5396 44.4557 60.6638 41.5146 61.0234C38.5885 61.3812 35.9233 61.9592 33.9844 62.4512C33.0186 62.6962 32.2412 62.9181 31.7119 63.0762C31.6705 63.0885 31.6301 63.1007 31.5918 63.1123C28.7531 65.76 26.3769 68.6342 24.5781 71.7529C26.6599 70.8756 28.8853 70.2433 31.1055 69.8008C39.3553 68.1564 48.8474 68.8507 53.9912 70.584L52.9141 73.7822L51.8359 76.9805C47.9685 75.6773 39.6914 74.9715 32.4248 76.4199C28.8196 77.1386 25.7994 78.3255 23.752 79.9424C21.8221 81.4666 20.75 83.3528 20.75 85.918H14L14.0039 85.3721C14.1746 73.9547 19.6963 64.7637 27.5986 57.6143C37.1061 49.0128 50.2743 43.1424 62.6992 39.4189C75.1446 35.6894 87.2318 34.0001 94.8564 34H105.526L96.7979 40.1357Z" fill="#2D4F2F"/>
<path d="M35.2653 53.2814L37.0777 55.4507L39.5555 55.501L37.8455 57.2949L38.1082 60.1095L36.2958 57.9401L33.8179 57.8899L35.528 56.0959L35.2653 53.2814Z" fill="#FADA5A"/>
<path d="M87.2653 36.2814L89.0777 38.4507L91.5555 38.501L89.8455 40.2949L90.1082 43.1095L88.2958 40.9401L85.8179 40.8899L87.528 39.0959L87.2653 36.2814Z" fill="#FADA5A"/>
<path d="M18.2722 73.509L20.8463 74.6773L23.1007 73.6477L22.3382 76.0059L23.7958 78.4278L21.2218 77.2595L18.9674 78.2891L19.7299 75.931L18.2722 73.509Z" fill="#FADA5A"/>
</g>
</svg>
