<svg width="174" height="55" viewBox="0 0 174 55" fill="none" xmlns="http://www.w3.org/2000/svg">
<path d="M65.3125 46.3125C65.3125 45.4792 65.5833 45.0625 66.125 45.0625C66.4167 45.0625 66.6875 45.2083 66.9375 45.5C69.6458 48.7083 73.0208 50.3125 77.0625 50.3125C79.6042 50.3125 81.5833 49.8125 83 48.8125C84.4583 47.7708 85.1875 46.375 85.1875 44.625C85.1875 43.25 84.5208 42.0833 83.1875 41.125C82.2708 40.4583 80.7083 39.75 78.5 39C74.75 37.6667 72.3125 36.6667 71.1875 36C67.9375 34.125 66.3125 31.5 66.3125 28.125C66.3125 25.4583 67.2708 23.2708 69.1875 21.5625C71.3958 19.6042 74.3333 18.625 78 18.625C81.0833 18.625 83.9167 19.1875 86.5 20.3125C88.5417 21.1042 89.3333 22.3542 88.875 24.0625L88.5625 25.3125C88.4792 25.7292 88.3125 25.9375 88.0625 25.9375C87.8542 25.9375 87.5417 25.8125 87.125 25.5625C84.2917 23.7708 81.2292 22.875 77.9375 22.875C75.8958 22.875 74.25 23.3333 73 24.25C71.75 25.1667 71.125 26.375 71.125 27.875C71.125 29.2917 71.7917 30.4792 73.125 31.4375C74.0417 32.1458 75.6042 32.875 77.8125 33.625C81.6458 34.9583 84.0833 35.9167 85.125 36.5C88.375 38.2917 90 40.8125 90 44.0625C90 47.0625 89.0417 49.5 87.125 51.375C84.875 53.5833 81.6875 54.6875 77.5625 54.6875C73.8958 54.6875 70.9167 53.8333 68.625 52.125C66.4167 50.4583 65.3125 48.5208 65.3125 46.3125ZM97.2891 35.125H93.0391C92.7057 35.125 92.5391 34.9583 92.5391 34.625V31.5C92.5391 31.1667 92.7057 31 93.0391 31H97.2891V23.25C97.2891 22.875 97.4349 22.6875 97.7266 22.6875H98.0391C100.622 22.6875 101.914 24.1458 101.914 27.0625V31H106.727C107.018 31 107.164 31.1667 107.164 31.5V34.625C107.164 34.9583 107.018 35.125 106.727 35.125H101.914V53.4375C101.914 53.8125 101.747 54 101.414 54H97.7266C97.4349 54 97.2891 53.8125 97.2891 53.4375V35.125ZM129.072 50.75C127.322 53.2917 124.781 54.5625 121.447 54.5625C118.322 54.5625 115.801 53.5208 113.885 51.4375C111.76 49.1875 110.697 46.2083 110.697 42.5C110.697 39.25 111.572 36.5208 113.322 34.3125C115.406 31.7292 118.176 30.4375 121.635 30.4375C125.051 30.4375 127.614 31.6458 129.322 34.0625C129.656 32.0208 130.864 31 132.947 31H133.26C133.551 31 133.697 31.1875 133.697 31.5625V53.4375C133.697 53.8125 133.551 54 133.26 54H129.572C129.239 54 129.072 53.8125 129.072 53.4375V50.75ZM122.135 50.1875C124.301 50.1875 125.989 49.5208 127.197 48.1875C128.447 46.8125 129.072 44.9167 129.072 42.5C129.072 39.9167 128.385 37.9583 127.01 36.625C125.801 35.4583 124.239 34.875 122.322 34.875C120.531 34.875 119.031 35.4167 117.822 36.5C116.281 37.9167 115.51 39.9167 115.51 42.5C115.51 44.7917 116.114 46.6458 117.322 48.0625C118.531 49.4792 120.135 50.1875 122.135 50.1875ZM142.221 35.125H138.471C138.137 35.125 137.971 34.9583 137.971 34.625V31.5625C137.971 31.1875 138.137 31 138.471 31H142.221V26.375C142.221 24 142.762 22.1667 143.846 20.875C144.929 19.5417 146.45 18.875 148.408 18.875C149.908 18.875 151.2 19.3542 152.283 20.3125C153.408 21.2708 153.971 22.3958 153.971 23.6875C153.971 24.2708 153.783 24.5625 153.408 24.5625C153.283 24.5625 153.137 24.5208 152.971 24.4375C152.929 24.3958 152.887 24.375 152.846 24.375C151.721 23.4583 150.617 23 149.533 23C147.742 23 146.846 24.2083 146.846 26.625V31H152.533C152.867 31 153.033 31.1875 153.033 31.5625V34.625C153.033 34.9583 152.867 35.125 152.533 35.125H146.846V53.4375C146.846 53.8125 146.679 54 146.346 54H142.721C142.387 54 142.221 53.8125 142.221 53.4375V35.125ZM160.287 35.125H156.537C156.204 35.125 156.037 34.9583 156.037 34.625V31.5625C156.037 31.1875 156.204 31 156.537 31H160.287V26.375C160.287 24 160.829 22.1667 161.912 20.875C162.995 19.5417 164.516 18.875 166.475 18.875C167.975 18.875 169.266 19.3542 170.35 20.3125C171.475 21.2708 172.037 22.3958 172.037 23.6875C172.037 24.2708 171.85 24.5625 171.475 24.5625C171.35 24.5625 171.204 24.5208 171.037 24.4375C170.995 24.3958 170.954 24.375 170.912 24.375C169.787 23.4583 168.683 23 167.6 23C165.808 23 164.912 24.2083 164.912 26.625V31H170.6C170.933 31 171.1 31.1875 171.1 31.5625V34.625C171.1 34.9583 170.933 35.125 170.6 35.125H164.912V53.4375C164.912 53.8125 164.745 54 164.412 54H160.787C160.454 54 160.287 53.8125 160.287 53.4375V35.125Z" fill="#2D4F2F"/>
<path d="M82.7979 8.13574C66.3682 19.6857 56.9392 27.6089 51.583 34.4424C46.4266 41.0213 45.0244 46.6146 45.0244 53.918H38.2744C38.2744 45.3519 40.0405 38.2269 46.2695 30.2793C50.9814 24.2676 58.2246 17.8147 69.0107 9.7666C63.474 10.5915 57.1312 11.9385 50.6367 13.8848C43.7785 15.94 36.878 18.6259 30.6445 21.9844C32.8076 21.8829 35.0537 21.9252 37.2568 22.2051C40.8273 22.6587 44.5149 23.7657 47.5264 26.1191L43.3701 31.4375C41.6478 30.0915 39.2706 29.2653 36.4062 28.9014C33.5591 28.5396 30.4557 28.6638 27.5146 29.0234C24.5885 29.3812 21.9233 29.9592 19.9844 30.4512C19.0186 30.6962 18.2412 30.9181 17.7119 31.0762C17.6705 31.0885 17.6301 31.1007 17.5918 31.1123C14.7531 33.76 12.3769 36.6342 10.5781 39.7529C12.6599 38.8756 14.8853 38.2433 17.1055 37.8008C25.3553 36.1564 34.8474 36.8507 39.9912 38.584L38.9141 41.7822L37.8359 44.9805C33.9685 43.6773 25.6914 42.9715 18.4248 44.4199C14.8196 45.1386 11.7994 46.3255 9.75195 47.9424C7.8221 49.4666 6.75 51.3528 6.75 53.918H0L0.00390625 53.3721C0.17457 41.9547 5.69627 32.7637 13.5986 25.6143C23.1061 17.0128 36.2743 11.1424 48.6992 7.41895C61.1446 3.68939 73.2318 2.00005 80.8564 2H91.5264L82.7979 8.13574Z" fill="#2D4F2F"/>
<path d="M21.2653 21.2814L23.0777 23.4507L25.5555 23.501L23.8455 25.2949L24.1082 28.1095L22.2958 25.9401L19.8179 25.8899L21.528 24.0959L21.2653 21.2814Z" fill="#FADA5A"/>
<path d="M73.2653 4.28138L75.0777 6.45072L77.5555 6.50101L75.8455 8.29493L76.1082 11.1095L74.2958 8.94014L71.8179 8.88985L73.528 7.09593L73.2653 4.28138Z" fill="#FADA5A"/>
<path d="M4.27223 41.509L6.84628 42.6773L9.10066 41.6477L8.33815 44.0059L9.79585 46.4278L7.22181 45.2595L4.96742 46.2891L5.72993 43.931L4.27223 41.509Z" fill="#FADA5A"/>
</svg>
