<svg width="322" height="55" viewBox="0 0 322 55" fill="none" xmlns="http://www.w3.org/2000/svg">
<path d="M213.928 8.69141C197.498 20.2414 188.069 28.1645 182.713 34.998C177.556 41.5769 176.154 47.1703 176.154 54.4736H169.404C169.404 45.9076 171.17 38.7825 177.399 30.835C182.111 24.8233 189.354 18.3704 200.141 10.3223C194.604 11.1472 188.261 12.4942 181.767 14.4404C174.908 16.4957 168.008 19.1816 161.774 22.54C163.938 22.4386 166.184 22.4809 168.387 22.7607C171.957 23.2144 175.645 24.3214 178.656 26.6748L174.5 31.9932C172.778 30.6472 170.401 29.821 167.536 29.457C164.689 29.0953 161.586 29.2195 158.645 29.5791C155.718 29.9369 153.053 30.5149 151.114 31.0068C150.148 31.2519 149.371 31.4738 148.842 31.6318C148.8 31.6442 148.76 31.6564 148.722 31.668C145.883 34.3157 143.507 37.1898 141.708 40.3086C143.79 39.4312 146.015 38.799 148.235 38.3564C156.485 36.712 165.977 37.4064 171.121 39.1396L170.044 42.3379L168.966 45.5361C165.098 44.2329 156.821 43.5271 149.555 44.9756C145.949 45.6942 142.929 46.8812 140.882 48.498C138.952 50.0222 137.88 51.9085 137.88 54.4736H131.13L131.134 53.9277C131.304 42.5104 136.826 33.3194 144.729 26.1699C154.236 17.5685 167.404 11.6981 179.829 7.97461C192.274 4.24505 204.362 2.55572 211.986 2.55566H222.656L213.928 8.69141Z" fill="#2D4F2F"/>
<path d="M152.395 21.837L154.208 24.0064L156.685 24.0567L154.975 25.8506L155.238 28.6651L153.426 26.4958L150.948 26.4455L152.658 24.6516L152.395 21.837Z" fill="#FADA5A"/>
<path d="M204.395 4.83704L206.208 7.00639L208.685 7.05667L206.975 8.8506L207.238 11.6651L205.426 9.4958L202.948 9.44552L204.658 7.65159L204.395 4.83704Z" fill="#FADA5A"/>
<path d="M135.402 42.0647L137.976 43.233L140.231 42.2034L139.468 44.5615L140.926 46.9835L138.352 45.8152L136.097 46.8448L136.86 44.4866L135.402 42.0647Z" fill="#FADA5A"/>
<path d="M197.813 54C197.479 54 197.312 53.8125 197.312 53.4375V31.5625C197.312 31.1875 197.479 31 197.813 31H198.125C200.708 31 202 32.4375 202 35.3125V53.4375C202 53.8125 201.833 54 201.5 54H197.813ZM196.875 24.8125C196.875 24.0208 197.146 23.3542 197.687 22.8125C198.229 22.2292 198.896 21.9375 199.687 21.9375C200.479 21.9375 201.125 22.2292 201.625 22.8125C202.167 23.3542 202.438 24.0208 202.438 24.8125C202.438 25.5625 202.167 26.2292 201.625 26.8125C201.083 27.3542 200.438 27.625 199.687 27.625C198.896 27.625 198.229 27.3542 197.687 26.8125C197.146 26.2708 196.875 25.6042 196.875 24.8125ZM213.043 34.3125C213.751 33.1042 214.605 32.25 215.605 31.75C216.647 31.25 218.043 31 219.793 31H220.48C220.814 31 220.98 31.1667 220.98 31.5V34.9375C220.98 35.3125 220.814 35.5 220.48 35.5H218.98C216.897 35.5 215.397 36.0417 214.48 37.125C213.605 38.1667 213.168 39.9583 213.168 42.5V53.4375C213.168 53.8125 213.022 54 212.73 54H209.043C208.71 54 208.543 53.8125 208.543 53.4375V31.5C208.543 31.1667 208.71 31 209.043 31H209.355C211.564 31 212.793 32.1042 213.043 34.3125ZM231.676 54.5625C227.801 54.5625 225.863 52.1667 225.863 47.375V19.8125C225.863 19.4375 226.03 19.25 226.363 19.25H226.676C229.217 19.25 230.488 20.6875 230.488 23.5625V47.0625C230.488 49.2292 231.301 50.3125 232.926 50.3125C234.009 50.3125 235.009 49.8125 235.926 48.8125C236.092 48.5625 236.301 48.4375 236.551 48.4375C236.926 48.4375 237.113 48.7083 237.113 49.25C237.113 50.75 236.592 52.0208 235.551 53.0625C234.509 54.0625 233.217 54.5625 231.676 54.5625ZM240.83 54C240.497 54 240.33 53.8125 240.33 53.4375V31.5625C240.33 31.1875 240.497 31 240.83 31H241.143C243.726 31 245.018 32.4375 245.018 35.3125V53.4375C245.018 53.8125 244.851 54 244.518 54H240.83ZM239.893 24.8125C239.893 24.0208 240.163 23.3542 240.705 22.8125C241.247 22.2292 241.913 21.9375 242.705 21.9375C243.497 21.9375 244.143 22.2292 244.643 22.8125C245.184 23.3542 245.455 24.0208 245.455 24.8125C245.455 25.5625 245.184 26.2292 244.643 26.8125C244.101 27.3542 243.455 27.625 242.705 27.625C241.913 27.625 241.247 27.3542 240.705 26.8125C240.163 26.2708 239.893 25.6042 239.893 24.8125ZM255.998 34.125C257.581 31.7083 259.998 30.5 263.248 30.5C265.956 30.5 268.123 31.2917 269.748 32.875C271.665 34.6667 272.623 37.2083 272.623 40.5V53.4375C272.623 53.8125 272.456 54 272.123 54H268.436C268.102 54 267.936 53.8125 267.936 53.4375V41.375C267.936 39.2917 267.436 37.6875 266.436 36.5625C265.436 35.3958 264.019 34.8125 262.186 34.8125C258.144 34.8125 256.123 37.0833 256.123 41.625V53.4375C256.123 53.8125 255.977 54 255.686 54H251.998C251.665 54 251.498 53.8125 251.498 53.4375V31.5625C251.498 31.1875 251.665 31 251.998 31H252.311C254.436 31 255.665 32.0417 255.998 34.125ZM282.725 44.1875C283.183 48.3958 285.725 50.5 290.35 50.5C292.891 50.5 295.245 49.7292 297.412 48.1875C297.495 48.1458 297.6 48.0625 297.725 47.9375C297.975 47.7708 298.162 47.6875 298.287 47.6875C298.704 47.6875 298.912 47.9792 298.912 48.5625C298.912 49.9375 298.245 51.1875 296.912 52.3125C295.162 53.8125 292.787 54.5625 289.787 54.5625C286.745 54.5625 284.183 53.7292 282.1 52.0625C279.433 49.8958 278.1 46.7083 278.1 42.5C278.1 39.2083 278.975 36.4792 280.725 34.3125C282.808 31.7292 285.579 30.4375 289.037 30.4375C292.245 30.4375 294.745 31.3958 296.537 33.3125C298.37 35.2292 299.287 37.7917 299.287 41C299.287 41.8333 299.245 42.6458 299.162 43.4375C299.079 43.9375 298.766 44.1875 298.225 44.1875H282.725ZM282.85 40.625H294.662C294.745 38.75 294.287 37.2708 293.287 36.1875C292.287 35.1042 290.85 34.5625 288.975 34.5625C287.225 34.5625 285.808 35.1042 284.725 36.1875C283.641 37.2292 283.016 38.7083 282.85 40.625ZM317.707 36C315.749 34.9583 313.79 34.4375 311.832 34.4375C309.374 34.4375 308.145 35.2708 308.145 36.9375C308.145 37.5625 308.436 38.125 309.02 38.625C309.603 39.0833 310.707 39.625 312.332 40.25C315.374 41.4167 317.395 42.4792 318.395 43.4375C319.436 44.3542 319.957 45.625 319.957 47.25C319.957 49.3333 319.29 51.0417 317.957 52.375C316.332 53.9167 314.082 54.6875 311.207 54.6875C308.957 54.6875 306.999 54.1042 305.332 52.9375C303.707 51.7708 302.895 50.375 302.895 48.75C302.895 48.0417 303.124 47.6875 303.582 47.6875C303.79 47.6875 303.978 47.7917 304.145 48C306.145 49.7917 308.353 50.6875 310.77 50.6875C313.77 50.6875 315.27 49.6875 315.27 47.6875C315.27 47.0208 314.957 46.4583 314.332 46C313.749 45.5 312.665 44.9583 311.082 44.375C308.04 43.2083 305.999 42.1667 304.957 41.25C303.915 40.2917 303.395 38.9792 303.395 37.3125C303.395 35.3542 304.124 33.75 305.582 32.5C307.165 31.125 309.27 30.4375 311.895 30.4375C313.895 30.4375 315.665 30.8125 317.207 31.5625C318.665 32.1875 319.228 33.3125 318.895 34.9375L318.707 35.75C318.624 36.0417 318.478 36.1875 318.27 36.1875C318.186 36.1875 318.061 36.1458 317.895 36.0625C317.77 36.0208 317.707 36 317.707 36Z" fill="#2D4F2F"/>
<path d="M27.625 47.3125V40H21.125C19.25 40 18.3125 39.0833 18.3125 37.25V36.25C18.3125 35.7917 18.5208 35.5625 18.9375 35.5625H31.5625C31.9792 35.5625 32.1875 35.7708 32.1875 36.1875V47.6875C32.1875 48.6875 31.7917 49.5625 31 50.3125C27.5 53.2292 23.5833 54.6875 19.25 54.6875C14.8333 54.6875 11.1875 53.3542 8.3125 50.6875C4.8125 47.3958 3.0625 42.6875 3.0625 36.5625C3.0625 31.4792 4.375 27.3333 7 24.125C10 20.4167 14.1875 18.5625 19.5625 18.5625C22.6875 18.5625 25.5833 19.1458 28.25 20.3125C30.25 21.1042 31.0625 22.3542 30.6875 24.0625L30.375 25.375C30.25 25.7917 30.0417 26 29.75 26C29.5 26 29.2083 25.875 28.875 25.625C26 23.9167 22.9792 23.0625 19.8125 23.0625C16.3125 23.0625 13.5417 24.0625 11.5 26.0625C9.125 28.4375 7.9375 32.0417 7.9375 36.875C7.9375 40.7917 8.8125 43.9167 10.5625 46.25C12.5625 48.875 15.4583 50.1875 19.25 50.1875C22.5417 50.1875 25.3333 49.2292 27.625 47.3125ZM44.2676 54.5625C40.3926 54.5625 38.4551 52.1667 38.4551 47.375V19.8125C38.4551 19.4375 38.6217 19.25 38.9551 19.25H39.2676C41.8092 19.25 43.0801 20.6875 43.0801 23.5625V47.0625C43.0801 49.2292 43.8926 50.3125 45.5176 50.3125C46.6009 50.3125 47.6009 49.8125 48.5176 48.8125C48.6842 48.5625 48.8926 48.4375 49.1426 48.4375C49.5176 48.4375 49.7051 48.7083 49.7051 49.25C49.7051 50.75 49.1842 52.0208 48.1426 53.0625C47.1009 54.0625 45.8092 54.5625 44.2676 54.5625ZM53.4219 54C53.0885 54 52.9219 53.8125 52.9219 53.4375V31.5625C52.9219 31.1875 53.0885 31 53.4219 31H53.7344C56.3177 31 57.6094 32.4375 57.6094 35.3125V53.4375C57.6094 53.8125 57.4427 54 57.1094 54H53.4219ZM52.4844 24.8125C52.4844 24.0208 52.7552 23.3542 53.2969 22.8125C53.8385 22.2292 54.5052 21.9375 55.2969 21.9375C56.0885 21.9375 56.7344 22.2292 57.2344 22.8125C57.776 23.3542 58.0469 24.0208 58.0469 24.8125C58.0469 25.5625 57.776 26.2292 57.2344 26.8125C56.6927 27.3542 56.0469 27.625 55.2969 27.625C54.5052 27.625 53.8385 27.3542 53.2969 26.8125C52.7552 26.2708 52.4844 25.6042 52.4844 24.8125ZM81.5898 34V19.8125C81.5898 19.4375 81.7565 19.25 82.0898 19.25H82.4023C84.9857 19.25 86.2773 20.6875 86.2773 23.5625V53.4375C86.2773 53.8125 86.1107 54 85.7773 54H82.0898C81.7565 54 81.5898 53.8125 81.5898 53.4375V50.75C79.8815 53.2917 77.3398 54.5625 73.9648 54.5625C70.8815 54.5625 68.3607 53.5208 66.4023 51.4375C64.2773 49.1458 63.2148 46.1667 63.2148 42.5C63.2148 39.25 64.0898 36.5208 65.8398 34.3125C67.9232 31.7292 70.7357 30.4375 74.2773 30.4375C77.569 30.4375 80.0065 31.625 81.5898 34ZM74.6523 50.1875C76.8607 50.1875 78.569 49.5208 79.7773 48.1875C80.9857 46.8125 81.5898 44.9167 81.5898 42.5C81.5898 39.9167 80.9232 37.9583 79.5898 36.625C78.3815 35.4583 76.7982 34.875 74.8398 34.875C73.0482 34.875 71.5482 35.4167 70.3398 36.5C68.7982 37.9167 68.0273 39.9167 68.0273 42.5C68.0273 44.7917 68.6315 46.6458 69.8398 48.0625C71.0482 49.4792 72.6523 50.1875 74.6523 50.1875ZM96.4883 44.1875C96.9466 48.3958 99.4883 50.5 104.113 50.5C106.655 50.5 109.009 49.7292 111.176 48.1875C111.259 48.1458 111.363 48.0625 111.488 47.9375C111.738 47.7708 111.926 47.6875 112.051 47.6875C112.467 47.6875 112.676 47.9792 112.676 48.5625C112.676 49.9375 112.009 51.1875 110.676 52.3125C108.926 53.8125 106.551 54.5625 103.551 54.5625C100.509 54.5625 97.9466 53.7292 95.8633 52.0625C93.1966 49.8958 91.8633 46.7083 91.8633 42.5C91.8633 39.2083 92.7383 36.4792 94.4883 34.3125C96.5716 31.7292 99.3424 30.4375 102.801 30.4375C106.009 30.4375 108.509 31.3958 110.301 33.3125C112.134 35.2292 113.051 37.7917 113.051 41C113.051 41.8333 113.009 42.6458 112.926 43.4375C112.842 43.9375 112.53 44.1875 111.988 44.1875H96.4883ZM96.6133 40.625H108.426C108.509 38.75 108.051 37.2708 107.051 36.1875C106.051 35.1042 104.613 34.5625 102.738 34.5625C100.988 34.5625 99.5716 35.1042 98.4883 36.1875C97.4049 37.2292 96.7799 38.7083 96.6133 40.625Z" fill="#2D4F2F"/>
</svg>
