<svg width="331" height="65" viewBox="0 0 331 65" fill="none" xmlns="http://www.w3.org/2000/svg">
<path d="M213.928 8.69141C197.498 20.2414 188.069 28.1645 182.713 34.998C177.556 41.5769 176.154 47.1703 176.154 54.4736H169.404C169.404 45.9076 171.17 38.7825 177.399 30.835C182.111 24.8233 189.354 18.3704 200.141 10.3223C194.604 11.1472 188.261 12.4942 181.767 14.4404C174.908 16.4957 168.008 19.1816 161.774 22.54C163.938 22.4386 166.184 22.4809 168.387 22.7607C171.957 23.2144 175.645 24.3214 178.656 26.6748L174.5 31.9932C172.778 30.6472 170.401 29.821 167.536 29.457C164.689 29.0953 161.586 29.2195 158.645 29.5791C155.718 29.9369 153.053 30.5149 151.114 31.0068C150.148 31.2519 149.371 31.4738 148.842 31.6318C148.8 31.6442 148.76 31.6564 148.722 31.668C145.883 34.3157 143.507 37.1898 141.708 40.3086C143.79 39.4312 146.015 38.799 148.235 38.3564C156.485 36.712 165.977 37.4064 171.121 39.1396L170.044 42.3379L168.966 45.5361C165.098 44.2329 156.821 43.5271 149.555 44.9756C145.949 45.6942 142.929 46.8812 140.882 48.498C138.952 50.0222 137.88 51.9085 137.88 54.4736H131.13L131.134 53.9277C131.304 42.5104 136.826 33.3194 144.729 26.1699C154.236 17.5685 167.404 11.6981 179.829 7.97461C192.274 4.24505 204.362 2.55572 211.986 2.55566H222.656L213.928 8.69141Z" fill="#2D4F2F"/>
<path d="M152.395 21.837L154.208 24.0064L156.685 24.0567L154.975 25.8506L155.238 28.6651L153.426 26.4958L150.948 26.4455L152.658 24.6516L152.395 21.837Z" fill="#FADA5A"/>
<path d="M204.395 4.83704L206.208 7.00639L208.685 7.05667L206.975 8.8506L207.238 11.6651L205.426 9.4958L202.948 9.44552L204.658 7.65159L204.395 4.83704Z" fill="#FADA5A"/>
<path d="M135.402 42.0647L137.976 43.233L140.231 42.2034L139.468 44.5615L140.926 46.9835L138.352 45.8152L136.097 46.8448L136.86 44.4866L135.402 42.0647Z" fill="#FADA5A"/>
<path d="M197.813 54C197.479 54 197.312 53.8125 197.312 53.4375V31.5625C197.312 31.1875 197.479 31 197.813 31H198.125C200.708 31 202 32.4375 202 35.3125V53.4375C202 53.8125 201.833 54 201.5 54H197.813ZM196.875 24.8125C196.875 24.0208 197.146 23.3542 197.687 22.8125C198.229 22.2292 198.896 21.9375 199.687 21.9375C200.479 21.9375 201.125 22.2292 201.625 22.8125C202.167 23.3542 202.438 24.0208 202.438 24.8125C202.438 25.5625 202.167 26.2292 201.625 26.8125C201.083 27.3542 200.438 27.625 199.687 27.625C198.896 27.625 198.229 27.3542 197.687 26.8125C197.146 26.2708 196.875 25.6042 196.875 24.8125ZM213.043 34.3125C213.751 33.1042 214.605 32.25 215.605 31.75C216.647 31.25 218.043 31 219.793 31H220.48C220.814 31 220.98 31.1667 220.98 31.5V34.9375C220.98 35.3125 220.814 35.5 220.48 35.5H218.98C216.897 35.5 215.397 36.0417 214.48 37.125C213.605 38.1667 213.168 39.9583 213.168 42.5V53.4375C213.168 53.8125 213.022 54 212.73 54H209.043C208.71 54 208.543 53.8125 208.543 53.4375V31.5C208.543 31.1667 208.71 31 209.043 31H209.355C211.564 31 212.793 32.1042 213.043 34.3125ZM233.301 48L238.301 31.5625C238.426 31.1875 238.676 31 239.051 31H239.676C240.967 31 241.926 31.2708 242.551 31.8125C243.176 32.3542 243.717 33.375 244.176 34.875L248.238 48L252.926 31.6875C253.092 31.2292 253.426 31 253.926 31H257.051C257.426 31 257.551 31.1667 257.426 31.5L250.613 53.5C250.488 53.8333 250.259 54 249.926 54H246.488C246.155 54 245.926 53.8333 245.801 53.5L240.613 37.1875L235.551 53.5C235.426 53.8333 235.217 54 234.926 54H231.363C231.03 54 230.78 53.8333 230.613 53.5L223.863 31.5C223.78 31.1667 223.905 31 224.238 31H225.051C226.384 31 227.384 31.2917 228.051 31.875C228.717 32.4583 229.238 33.4583 229.613 34.875L233.301 48ZM279.189 50.75C277.439 53.2917 274.898 54.5625 271.564 54.5625C268.439 54.5625 265.919 53.5208 264.002 51.4375C261.877 49.1875 260.814 46.2083 260.814 42.5C260.814 39.25 261.689 36.5208 263.439 34.3125C265.523 31.7292 268.294 30.4375 271.752 30.4375C275.169 30.4375 277.731 31.6458 279.439 34.0625C279.773 32.0208 280.981 31 283.064 31H283.377C283.669 31 283.814 31.1875 283.814 31.5625V53.4375C283.814 53.8125 283.669 54 283.377 54H279.689C279.356 54 279.189 53.8125 279.189 53.4375V50.75ZM272.252 50.1875C274.419 50.1875 276.106 49.5208 277.314 48.1875C278.564 46.8125 279.189 44.9167 279.189 42.5C279.189 39.9167 278.502 37.9583 277.127 36.625C275.919 35.4583 274.356 34.875 272.439 34.875C270.648 34.875 269.148 35.4167 267.939 36.5C266.398 37.9167 265.627 39.9167 265.627 42.5C265.627 44.7917 266.231 46.6458 267.439 48.0625C268.648 49.4792 270.252 50.1875 272.252 50.1875ZM295.955 54.4375L287.955 31.5625C287.913 31.1875 288.018 31 288.268 31H289.33C290.58 31 291.518 31.2708 292.143 31.8125C292.809 32.3542 293.413 33.375 293.955 34.875L298.455 48.5L303.955 31.6875C304.122 31.2292 304.455 31 304.955 31H308.393C308.643 31 308.747 31.1875 308.705 31.5625L300.518 54.5625C299.184 58.4375 297.893 61.0833 296.643 62.5C295.434 63.9583 293.809 64.6875 291.768 64.6875C290.351 64.6875 289.122 64.2083 288.08 63.25C287.038 62.2917 286.518 61.1458 286.518 59.8125C286.518 59.1875 286.726 58.875 287.143 58.875C287.309 58.875 287.497 58.9583 287.705 59.125C288.83 60.125 289.913 60.625 290.955 60.625C292.08 60.625 292.976 60.2083 293.643 59.375C294.309 58.5417 295.08 56.8958 295.955 54.4375ZM325.764 36C323.805 34.9583 321.847 34.4375 319.889 34.4375C317.43 34.4375 316.201 35.2708 316.201 36.9375C316.201 37.5625 316.493 38.125 317.076 38.625C317.66 39.0833 318.764 39.625 320.389 40.25C323.43 41.4167 325.451 42.4792 326.451 43.4375C327.493 44.3542 328.014 45.625 328.014 47.25C328.014 49.3333 327.347 51.0417 326.014 52.375C324.389 53.9167 322.139 54.6875 319.264 54.6875C317.014 54.6875 315.055 54.1042 313.389 52.9375C311.764 51.7708 310.951 50.375 310.951 48.75C310.951 48.0417 311.18 47.6875 311.639 47.6875C311.847 47.6875 312.035 47.7917 312.201 48C314.201 49.7917 316.41 50.6875 318.826 50.6875C321.826 50.6875 323.326 49.6875 323.326 47.6875C323.326 47.0208 323.014 46.4583 322.389 46C321.805 45.5 320.722 44.9583 319.139 44.375C316.097 43.2083 314.055 42.1667 313.014 41.25C311.972 40.2917 311.451 38.9792 311.451 37.3125C311.451 35.3542 312.18 33.75 313.639 32.5C315.222 31.125 317.326 30.4375 319.951 30.4375C321.951 30.4375 323.722 30.8125 325.264 31.5625C326.722 32.1875 327.285 33.3125 326.951 34.9375L326.764 35.75C326.68 36.0417 326.535 36.1875 326.326 36.1875C326.243 36.1875 326.118 36.1458 325.951 36.0625C325.826 36.0208 325.764 36 325.764 36Z" fill="#2D4F2F"/>
<path d="M27.625 47.3125V40H21.125C19.25 40 18.3125 39.0833 18.3125 37.25V36.25C18.3125 35.7917 18.5208 35.5625 18.9375 35.5625H31.5625C31.9792 35.5625 32.1875 35.7708 32.1875 36.1875V47.6875C32.1875 48.6875 31.7917 49.5625 31 50.3125C27.5 53.2292 23.5833 54.6875 19.25 54.6875C14.8333 54.6875 11.1875 53.3542 8.3125 50.6875C4.8125 47.3958 3.0625 42.6875 3.0625 36.5625C3.0625 31.4792 4.375 27.3333 7 24.125C10 20.4167 14.1875 18.5625 19.5625 18.5625C22.6875 18.5625 25.5833 19.1458 28.25 20.3125C30.25 21.1042 31.0625 22.3542 30.6875 24.0625L30.375 25.375C30.25 25.7917 30.0417 26 29.75 26C29.5 26 29.2083 25.875 28.875 25.625C26 23.9167 22.9792 23.0625 19.8125 23.0625C16.3125 23.0625 13.5417 24.0625 11.5 26.0625C9.125 28.4375 7.9375 32.0417 7.9375 36.875C7.9375 40.7917 8.8125 43.9167 10.5625 46.25C12.5625 48.875 15.4583 50.1875 19.25 50.1875C22.5417 50.1875 25.3333 49.2292 27.625 47.3125ZM44.2676 54.5625C40.3926 54.5625 38.4551 52.1667 38.4551 47.375V19.8125C38.4551 19.4375 38.6217 19.25 38.9551 19.25H39.2676C41.8092 19.25 43.0801 20.6875 43.0801 23.5625V47.0625C43.0801 49.2292 43.8926 50.3125 45.5176 50.3125C46.6009 50.3125 47.6009 49.8125 48.5176 48.8125C48.6842 48.5625 48.8926 48.4375 49.1426 48.4375C49.5176 48.4375 49.7051 48.7083 49.7051 49.25C49.7051 50.75 49.1842 52.0208 48.1426 53.0625C47.1009 54.0625 45.8092 54.5625 44.2676 54.5625ZM53.4219 54C53.0885 54 52.9219 53.8125 52.9219 53.4375V31.5625C52.9219 31.1875 53.0885 31 53.4219 31H53.7344C56.3177 31 57.6094 32.4375 57.6094 35.3125V53.4375C57.6094 53.8125 57.4427 54 57.1094 54H53.4219ZM52.4844 24.8125C52.4844 24.0208 52.7552 23.3542 53.2969 22.8125C53.8385 22.2292 54.5052 21.9375 55.2969 21.9375C56.0885 21.9375 56.7344 22.2292 57.2344 22.8125C57.776 23.3542 58.0469 24.0208 58.0469 24.8125C58.0469 25.5625 57.776 26.2292 57.2344 26.8125C56.6927 27.3542 56.0469 27.625 55.2969 27.625C54.5052 27.625 53.8385 27.3542 53.2969 26.8125C52.7552 26.2708 52.4844 25.6042 52.4844 24.8125ZM81.5898 34V19.8125C81.5898 19.4375 81.7565 19.25 82.0898 19.25H82.4023C84.9857 19.25 86.2773 20.6875 86.2773 23.5625V53.4375C86.2773 53.8125 86.1107 54 85.7773 54H82.0898C81.7565 54 81.5898 53.8125 81.5898 53.4375V50.75C79.8815 53.2917 77.3398 54.5625 73.9648 54.5625C70.8815 54.5625 68.3607 53.5208 66.4023 51.4375C64.2773 49.1458 63.2148 46.1667 63.2148 42.5C63.2148 39.25 64.0898 36.5208 65.8398 34.3125C67.9232 31.7292 70.7357 30.4375 74.2773 30.4375C77.569 30.4375 80.0065 31.625 81.5898 34ZM74.6523 50.1875C76.8607 50.1875 78.569 49.5208 79.7773 48.1875C80.9857 46.8125 81.5898 44.9167 81.5898 42.5C81.5898 39.9167 80.9232 37.9583 79.5898 36.625C78.3815 35.4583 76.7982 34.875 74.8398 34.875C73.0482 34.875 71.5482 35.4167 70.3398 36.5C68.7982 37.9167 68.0273 39.9167 68.0273 42.5C68.0273 44.7917 68.6315 46.6458 69.8398 48.0625C71.0482 49.4792 72.6523 50.1875 74.6523 50.1875ZM96.4883 44.1875C96.9466 48.3958 99.4883 50.5 104.113 50.5C106.655 50.5 109.009 49.7292 111.176 48.1875C111.259 48.1458 111.363 48.0625 111.488 47.9375C111.738 47.7708 111.926 47.6875 112.051 47.6875C112.467 47.6875 112.676 47.9792 112.676 48.5625C112.676 49.9375 112.009 51.1875 110.676 52.3125C108.926 53.8125 106.551 54.5625 103.551 54.5625C100.509 54.5625 97.9466 53.7292 95.8633 52.0625C93.1966 49.8958 91.8633 46.7083 91.8633 42.5C91.8633 39.2083 92.7383 36.4792 94.4883 34.3125C96.5716 31.7292 99.3424 30.4375 102.801 30.4375C106.009 30.4375 108.509 31.3958 110.301 33.3125C112.134 35.2292 113.051 37.7917 113.051 41C113.051 41.8333 113.009 42.6458 112.926 43.4375C112.842 43.9375 112.53 44.1875 111.988 44.1875H96.4883ZM96.6133 40.625H108.426C108.509 38.75 108.051 37.2708 107.051 36.1875C106.051 35.1042 104.613 34.5625 102.738 34.5625C100.988 34.5625 99.5716 35.1042 98.4883 36.1875C97.4049 37.2292 96.7799 38.7083 96.6133 40.625Z" fill="#2D4F2F"/>
</svg>
